<mxfile host="app.diagrams.net" agent="Mozilla/5.0 (X11; Linux x86_64; rv:131.0) Gecko/20100101 Firefox/131.0" version="24.8.0">
  <diagram name="Pagina-1" id="gCNlwO5UvVj17ns6b5Kj">
    <mxGraphModel dx="2157" dy="1275" grid="1" gridSize="10" guides="1" tooltips="1" connect="1" arrows="1" fold="1" page="1" pageScale="1" pageWidth="1169" pageHeight="1654" math="0" shadow="0">
      <root>
        <mxCell id="0" />
        <mxCell id="1" parent="0" />
        <mxCell id="kEZBD5XzJcjrI12vPfJU-1" value="" style="rounded=0;whiteSpace=wrap;html=1;fillColor=default;" vertex="1" parent="1">
          <mxGeometry x="223" y="170" width="724" height="410" as="geometry" />
        </mxCell>
        <mxCell id="kEZBD5XzJcjrI12vPfJU-2" value="Admin" style="shape=datastore;whiteSpace=wrap;html=1;" vertex="1" parent="1">
          <mxGeometry x="474" y="476" width="75" height="75" as="geometry" />
        </mxCell>
        <mxCell id="kEZBD5XzJcjrI12vPfJU-7" style="edgeStyle=orthogonalEdgeStyle;rounded=0;orthogonalLoop=1;jettySize=auto;html=1;exitX=1;exitY=0.75;exitDx=0;exitDy=0;entryX=0;entryY=0.5;entryDx=0;entryDy=0;startArrow=classic;startFill=1;" edge="1" parent="1" source="kEZBD5XzJcjrI12vPfJU-4" target="kEZBD5XzJcjrI12vPfJU-2">
          <mxGeometry relative="1" as="geometry">
            <mxPoint x="374" y="517" as="sourcePoint" />
          </mxGeometry>
        </mxCell>
        <mxCell id="kEZBD5XzJcjrI12vPfJU-6" style="edgeStyle=orthogonalEdgeStyle;rounded=0;orthogonalLoop=1;jettySize=auto;html=1;exitX=1;exitY=0.25;exitDx=0;exitDy=0;entryX=0;entryY=0.7;entryDx=0;entryDy=0;startArrow=classic;startFill=1;" edge="1" parent="1" source="kEZBD5XzJcjrI12vPfJU-4" target="kEZBD5XzJcjrI12vPfJU-5">
          <mxGeometry relative="1" as="geometry" />
        </mxCell>
        <mxCell id="kEZBD5XzJcjrI12vPfJU-40" style="edgeStyle=orthogonalEdgeStyle;rounded=0;orthogonalLoop=1;jettySize=auto;html=1;exitX=0;exitY=0.5;exitDx=0;exitDy=0;startArrow=classic;startFill=1;" edge="1" parent="1" source="kEZBD5XzJcjrI12vPfJU-4">
          <mxGeometry relative="1" as="geometry">
            <mxPoint x="194" y="475.0769230769231" as="targetPoint" />
          </mxGeometry>
        </mxCell>
        <mxCell id="kEZBD5XzJcjrI12vPfJU-4" value="Authentication" style="rounded=0;whiteSpace=wrap;html=1;" vertex="1" parent="1">
          <mxGeometry x="254" y="445" width="120" height="60" as="geometry" />
        </mxCell>
        <mxCell id="kEZBD5XzJcjrI12vPfJU-36" style="edgeStyle=orthogonalEdgeStyle;rounded=0;orthogonalLoop=1;jettySize=auto;html=1;exitX=1;exitY=0.5;exitDx=0;exitDy=0;entryX=0.004;entryY=0.324;entryDx=0;entryDy=0;entryPerimeter=0;startArrow=classic;startFill=1;" edge="1" parent="1" source="kEZBD5XzJcjrI12vPfJU-5" target="kEZBD5XzJcjrI12vPfJU-17">
          <mxGeometry relative="1" as="geometry">
            <mxPoint x="784" y="330" as="targetPoint" />
            <Array as="points">
              <mxPoint x="594" y="426" />
              <mxPoint x="594" y="329" />
            </Array>
          </mxGeometry>
        </mxCell>
        <mxCell id="kEZBD5XzJcjrI12vPfJU-5" value="Player" style="shape=datastore;whiteSpace=wrap;html=1;" vertex="1" parent="1">
          <mxGeometry x="474" y="388" width="75" height="75" as="geometry" />
        </mxCell>
        <mxCell id="kEZBD5XzJcjrI12vPfJU-8" value="Gacha" style="shape=datastore;whiteSpace=wrap;html=1;" vertex="1" parent="1">
          <mxGeometry x="474" y="190" width="75" height="75" as="geometry" />
        </mxCell>
        <mxCell id="kEZBD5XzJcjrI12vPfJU-10" style="edgeStyle=orthogonalEdgeStyle;rounded=0;orthogonalLoop=1;jettySize=auto;html=1;entryX=0;entryY=0.5;entryDx=0;entryDy=0;exitX=1;exitY=0.5;exitDx=0;exitDy=0;" edge="1" parent="1" source="kEZBD5XzJcjrI12vPfJU-9" target="kEZBD5XzJcjrI12vPfJU-8">
          <mxGeometry relative="1" as="geometry">
            <mxPoint x="404" y="270" as="sourcePoint" />
          </mxGeometry>
        </mxCell>
        <mxCell id="kEZBD5XzJcjrI12vPfJU-14" style="edgeStyle=orthogonalEdgeStyle;rounded=0;orthogonalLoop=1;jettySize=auto;html=1;exitX=1;exitY=0.5;exitDx=0;exitDy=0;entryX=0;entryY=0.5;entryDx=0;entryDy=0;" edge="1" parent="1" source="kEZBD5XzJcjrI12vPfJU-9" target="kEZBD5XzJcjrI12vPfJU-12">
          <mxGeometry relative="1" as="geometry" />
        </mxCell>
        <mxCell id="kEZBD5XzJcjrI12vPfJU-42" style="edgeStyle=orthogonalEdgeStyle;rounded=0;orthogonalLoop=1;jettySize=auto;html=1;exitX=0;exitY=0.5;exitDx=0;exitDy=0;startArrow=classic;startFill=1;" edge="1" parent="1" source="kEZBD5XzJcjrI12vPfJU-9">
          <mxGeometry relative="1" as="geometry">
            <mxPoint x="194" y="269.6923076923076" as="targetPoint" />
          </mxGeometry>
        </mxCell>
        <mxCell id="kEZBD5XzJcjrI12vPfJU-9" value="Collection" style="rounded=0;whiteSpace=wrap;html=1;" vertex="1" parent="1">
          <mxGeometry x="254" y="240" width="120" height="60" as="geometry" />
        </mxCell>
        <mxCell id="kEZBD5XzJcjrI12vPfJU-11" value="Transaction" style="shape=datastore;whiteSpace=wrap;html=1;" vertex="1" parent="1">
          <mxGeometry x="634" y="201" width="75" height="75" as="geometry" />
        </mxCell>
        <mxCell id="kEZBD5XzJcjrI12vPfJU-12" value="Rarity" style="shape=datastore;whiteSpace=wrap;html=1;" vertex="1" parent="1">
          <mxGeometry x="474" y="275" width="75" height="75" as="geometry" />
        </mxCell>
        <mxCell id="kEZBD5XzJcjrI12vPfJU-13" value="Auction" style="shape=datastore;whiteSpace=wrap;html=1;" vertex="1" parent="1">
          <mxGeometry x="634" y="370" width="75" height="75" as="geometry" />
        </mxCell>
        <mxCell id="kEZBD5XzJcjrI12vPfJU-16" style="edgeStyle=orthogonalEdgeStyle;rounded=0;orthogonalLoop=1;jettySize=auto;html=1;exitX=1;exitY=0.75;exitDx=0;exitDy=0;entryX=0;entryY=0.5;entryDx=0;entryDy=0;startArrow=classic;startFill=1;" edge="1" parent="1" source="kEZBD5XzJcjrI12vPfJU-15" target="kEZBD5XzJcjrI12vPfJU-5">
          <mxGeometry relative="1" as="geometry" />
        </mxCell>
        <mxCell id="kEZBD5XzJcjrI12vPfJU-23" style="edgeStyle=orthogonalEdgeStyle;rounded=0;orthogonalLoop=1;jettySize=auto;html=1;exitX=0.5;exitY=0;exitDx=0;exitDy=0;entryX=0.5;entryY=1;entryDx=0;entryDy=0;startArrow=classic;startFill=1;" edge="1" parent="1" source="kEZBD5XzJcjrI12vPfJU-15" target="kEZBD5XzJcjrI12vPfJU-9">
          <mxGeometry relative="1" as="geometry" />
        </mxCell>
        <mxCell id="kEZBD5XzJcjrI12vPfJU-26" style="edgeStyle=orthogonalEdgeStyle;rounded=0;orthogonalLoop=1;jettySize=auto;html=1;exitX=1;exitY=0.25;exitDx=0;exitDy=0;startArrow=classic;startFill=1;entryX=-0.003;entryY=0.519;entryDx=0;entryDy=0;entryPerimeter=0;" edge="1" parent="1" source="kEZBD5XzJcjrI12vPfJU-15" target="kEZBD5XzJcjrI12vPfJU-11">
          <mxGeometry relative="1" as="geometry">
            <mxPoint x="654" y="240" as="targetPoint" />
            <Array as="points">
              <mxPoint x="577" y="368" />
              <mxPoint x="577" y="240" />
            </Array>
          </mxGeometry>
        </mxCell>
        <mxCell id="kEZBD5XzJcjrI12vPfJU-41" style="edgeStyle=orthogonalEdgeStyle;rounded=0;orthogonalLoop=1;jettySize=auto;html=1;exitX=0;exitY=0.5;exitDx=0;exitDy=0;startArrow=classic;startFill=1;" edge="1" parent="1" source="kEZBD5XzJcjrI12vPfJU-15">
          <mxGeometry relative="1" as="geometry">
            <mxPoint x="194" y="382.7692307692307" as="targetPoint" />
          </mxGeometry>
        </mxCell>
        <mxCell id="kEZBD5XzJcjrI12vPfJU-15" value="Account" style="rounded=0;whiteSpace=wrap;html=1;" vertex="1" parent="1">
          <mxGeometry x="254" y="353" width="120" height="60" as="geometry" />
        </mxCell>
        <mxCell id="kEZBD5XzJcjrI12vPfJU-25" style="edgeStyle=orthogonalEdgeStyle;rounded=0;orthogonalLoop=1;jettySize=auto;html=1;exitX=0;exitY=0.75;exitDx=0;exitDy=0;entryX=1;entryY=0.5;entryDx=0;entryDy=0;startArrow=classic;startFill=1;" edge="1" parent="1" source="kEZBD5XzJcjrI12vPfJU-17" target="kEZBD5XzJcjrI12vPfJU-13">
          <mxGeometry relative="1" as="geometry" />
        </mxCell>
        <mxCell id="kEZBD5XzJcjrI12vPfJU-35" style="edgeStyle=orthogonalEdgeStyle;rounded=0;orthogonalLoop=1;jettySize=auto;html=1;exitX=0.5;exitY=0;exitDx=0;exitDy=0;entryX=0.5;entryY=1;entryDx=0;entryDy=0;startArrow=classic;startFill=1;" edge="1" parent="1" source="kEZBD5XzJcjrI12vPfJU-17" target="kEZBD5XzJcjrI12vPfJU-19">
          <mxGeometry relative="1" as="geometry" />
        </mxCell>
        <mxCell id="kEZBD5XzJcjrI12vPfJU-38" style="edgeStyle=orthogonalEdgeStyle;rounded=0;orthogonalLoop=1;jettySize=auto;html=1;exitX=1;exitY=0.5;exitDx=0;exitDy=0;startArrow=classic;startFill=1;" edge="1" parent="1" source="kEZBD5XzJcjrI12vPfJU-17">
          <mxGeometry relative="1" as="geometry">
            <mxPoint x="974" y="339.6923076923076" as="targetPoint" />
          </mxGeometry>
        </mxCell>
        <mxCell id="kEZBD5XzJcjrI12vPfJU-17" value="Market" style="rounded=0;whiteSpace=wrap;html=1;" vertex="1" parent="1">
          <mxGeometry x="789" y="310" width="120" height="60" as="geometry" />
        </mxCell>
        <mxCell id="kEZBD5XzJcjrI12vPfJU-24" style="edgeStyle=orthogonalEdgeStyle;rounded=0;orthogonalLoop=1;jettySize=auto;html=1;exitX=0;exitY=0.5;exitDx=0;exitDy=0;entryX=1;entryY=0.5;entryDx=0;entryDy=0;startArrow=classic;startFill=1;" edge="1" parent="1" source="kEZBD5XzJcjrI12vPfJU-19" target="kEZBD5XzJcjrI12vPfJU-11">
          <mxGeometry relative="1" as="geometry" />
        </mxCell>
        <mxCell id="kEZBD5XzJcjrI12vPfJU-19" value="Payment" style="rounded=0;whiteSpace=wrap;html=1;" vertex="1" parent="1">
          <mxGeometry x="789" y="208.5" width="120" height="60" as="geometry" />
        </mxCell>
        <mxCell id="kEZBD5XzJcjrI12vPfJU-29" style="edgeStyle=orthogonalEdgeStyle;rounded=0;orthogonalLoop=1;jettySize=auto;html=1;exitX=0;exitY=0.5;exitDx=0;exitDy=0;entryX=1;entryY=0.7;entryDx=0;entryDy=0;startArrow=classic;startFill=1;" edge="1" parent="1" source="kEZBD5XzJcjrI12vPfJU-28" target="kEZBD5XzJcjrI12vPfJU-5">
          <mxGeometry relative="1" as="geometry">
            <Array as="points">
              <mxPoint x="594" y="490" />
              <mxPoint x="594" y="441" />
            </Array>
          </mxGeometry>
        </mxCell>
        <mxCell id="kEZBD5XzJcjrI12vPfJU-39" style="edgeStyle=orthogonalEdgeStyle;rounded=0;orthogonalLoop=1;jettySize=auto;html=1;exitX=1;exitY=0.5;exitDx=0;exitDy=0;startArrow=classic;startFill=1;" edge="1" parent="1" source="kEZBD5XzJcjrI12vPfJU-28">
          <mxGeometry relative="1" as="geometry">
            <mxPoint x="974" y="489.6923076923076" as="targetPoint" />
          </mxGeometry>
        </mxCell>
        <mxCell id="kEZBD5XzJcjrI12vPfJU-28" value="Currency" style="rounded=0;whiteSpace=wrap;html=1;" vertex="1" parent="1">
          <mxGeometry x="789" y="460" width="120" height="60" as="geometry" />
        </mxCell>
      </root>
    </mxGraphModel>
  </diagram>
</mxfile>
